<svg width="1409" height="796" viewBox="0 0 1409 796" fill="none" xmlns="http://www.w3.org/2000/svg">
<rect width="1409" height="796" fill="#F5F5F5"/>
<rect width="1409" height="796" fill="#338D31"/>
<g filter="url(#filter0_i_0_1)">
<mask id="mask0_0_1" style="mask-type:alpha" maskUnits="userSpaceOnUse" x="0" y="0" width="1409" height="796">
<rect width="1409" height="796" fill="#338D31"/>
</mask>
<g mask="url(#mask0_0_1)">
<path d="M74.3861 -107.769C198.044 -142.743 354.234 -146.943 451.541 -52.7486C454.061 -40.5408 464.334 -31.4012 480.435 -24.7017C496.612 -17.9702 518.786 -13.6508 545.25 -11.1647C598.184 -6.19185 668.427 -8.54266 742.535 -13.7262C799.603 -17.718 858.984 -23.3913 914.538 -28.699C931.129 -30.2842 947.379 -31.8367 963.125 -33.3022C1031.61 -39.676 1090.52 -44.3988 1126.48 -43.0004C1131.05 -42.8226 1135.59 -42.6459 1140.09 -42.4705C1224.19 -39.1925 1295.82 -36.4003 1351.13 -36.875C1380.26 -37.1251 1404.88 -38.2816 1424.41 -40.754C1443.92 -43.224 1458.42 -47.0147 1467.27 -52.5767C1468.36 -53.2618 1469.06 -53.5944 1469.44 -53.6716C1469.36 -53.2998 1469.05 -52.6291 1468.43 -51.6268C1467.82 -50.636 1466.96 -49.3801 1465.85 -47.8699C1461.43 -41.8425 1453.27 -31.8961 1442.63 -18.9286L1442.54 -18.8172C1421.18 7.21376 1389.92 45.3185 1359.09 88.0826C1328.27 130.843 1297.88 178.283 1278.25 222.986C1258.63 267.663 1249.71 309.732 1262.03 341.68C1274.34 373.579 1300.11 396.685 1331.06 414.387C1362.02 432.089 1398.22 444.414 1431.48 454.728C1437.85 456.706 1444.12 458.609 1450.22 460.462C1475.96 468.28 1498.73 475.195 1514.28 482.994C1523.9 487.821 1530.65 492.937 1533.66 498.725C1536.64 504.447 1536.02 510.941 1530.59 518.714C1525.18 526.462 1515.7 532.135 1503.38 536.377C1491.08 540.616 1476.01 543.404 1459.52 545.426C1443.03 547.447 1425.13 548.7 1407.16 549.878C1405.33 549.998 1403.5 550.117 1401.67 550.236C1385.55 551.286 1369.47 552.333 1354.45 553.878C1337.72 555.597 1322.26 557.937 1309.45 561.595C1296.64 565.251 1286.4 570.241 1280.17 577.31C1273.91 584.415 1271.76 593.561 1275 605.361C1278.24 617.129 1286.85 631.555 1302.12 649.326C1317.35 667.05 1326.17 681.979 1329.79 694.485C1333.4 706.971 1331.84 717.026 1326.32 725.077C1320.79 733.15 1311.23 739.278 1298.73 743.786C1286.23 748.291 1270.84 751.161 1253.7 752.752C1185.16 759.12 1089.09 745.008 1040.11 734.012C999.92 724.99 949.132 711.005 897.598 696.815C886.319 693.709 875.004 690.593 863.757 687.518C801.14 670.395 740.609 654.511 700.073 648.505C679.713 645.489 661.374 649.201 642.949 656.141C630.004 661.018 616.986 667.502 603.193 674.372C597.379 677.268 591.427 680.232 585.284 683.174C543.832 703.026 493.432 721.988 417.062 712.504C354.346 704.716 307.029 720.416 267.216 733.627C258.381 736.559 249.916 739.368 241.734 741.77C219.193 748.389 198.835 751.918 178.77 746.548C158.715 741.182 138.864 726.9 117.403 697.704C74.4783 639.306 52.4925 556.158 42.9963 478.065C33.501 399.978 36.5029 327.03 43.4917 289.091C47.0136 269.972 43.5493 247.191 35.3644 222.918C27.1771 198.638 14.2517 172.822 -1.19869 147.614C-32.0973 97.2002 -73.1304 49.158 -106.676 20.6192C-110.778 17.129 -112.947 13.0974 -113.408 8.64767C-113.871 4.18468 -112.621 -0.756729 -109.774 -6.06039C-104.075 -16.6779 -92.0476 -28.6083 -75.0526 -40.781C-41.0799 -65.114 12.551 -90.2802 74.3861 -107.769Z" fill="#222222" stroke="#222222"/>
</g>
</g>
<defs>
<filter id="filter0_i_0_1" x="-4" y="-4" width="1413" height="758.84" filterUnits="userSpaceOnUse" color-interpolation-filters="sRGB">
<feFlood flood-opacity="0" result="BackgroundImageFix"/>
<feBlend mode="normal" in="SourceGraphic" in2="BackgroundImageFix" result="shape"/>
<feColorMatrix in="SourceAlpha" type="matrix" values="0 0 0 0 0 0 0 0 0 0 0 0 0 0 0 0 0 0 127 0" result="hardAlpha"/>
<feOffset dx="-4" dy="-4"/>
<feGaussianBlur stdDeviation="2"/>
<feComposite in2="hardAlpha" operator="arithmetic" k2="-1" k3="1"/>
<feColorMatrix type="matrix" values="0 0 0 0 0 0 0 0 0 0 0 0 0 0 0 0 0 0 0.25 0"/>
<feBlend mode="normal" in2="shape" result="effect1_innerShadow_0_1"/>
</filter>
</defs>
</svg>
